<?xml version="1.0" standalone="no"?>
<!DOCTYPE svg PUBLIC "-//W3C//DTD SVG 20010904//EN"
 "http://www.w3.org/TR/2001/REC-SVG-20010904/DTD/svg10.dtd">
<svg version="1.0" xmlns="http://www.w3.org/2000/svg"
 width="224.000000pt" height="224.000000pt" viewBox="0 0 224.000000 224.000000"
 preserveAspectRatio="xMidYMid meet">

<g transform="translate(0.000000,224.000000) scale(0.100000,-0.100000)"
fill="#000000" stroke="none">
<path d="M1015 2229 c-329 -33 -640 -218 -818 -486 -377 -567 -170 -1332 440
-1625 373 -179 817 -137 1149 110 490 365 592 1067 226 1558 -232 310 -618
482 -997 443z m451 -374 c87 -26 154 -116 154 -208 0 -58 -45 -145 -89 -174
-19 -13 -39 -23 -45 -23 -6 0 -27 28 -46 61 -19 34 -49 73 -66 89 -31 27 -129
70 -160 70 -42 0 -21 79 35 134 36 35 100 64 147 65 11 1 43 -6 70 -14z m-220
-253 c63 -22 102 -53 145 -115 29 -43 33 -57 37 -132 4 -72 1 -90 -19 -131
-26 -54 -83 -115 -131 -140 -42 -22 -150 -30 -204 -15 -22 6 -60 24 -82 41
-122 88 -155 244 -79 372 69 115 204 164 333 120z m-454 -642 c36 -10 121 -63
208 -129 71 -53 124 -72 238 -81 56 -4 109 -13 117 -20 25 -21 19 -67 -12 -87
-41 -27 -334 -26 -411 1 -29 10 -56 16 -58 13 -10 -9 82 -65 134 -82 78 -26
290 -18 349 13 66 35 93 109 57 160 -27 39 -73 55 -171 60 -51 3 -90 8 -88 13
9 13 158 96 198 108 33 11 42 10 78 -8 37 -20 42 -20 71 -5 47 24 117 22 139
-5 10 -11 19 -26 21 -32 2 -6 17 -4 40 6 56 23 104 20 133 -10 29 -28 31 -45
11 -83 -19 -37 -39 -50 -324 -221 -309 -185 -321 -191 -376 -191 -44 0 -254
66 -346 109 -65 30 -103 27 -177 -15 -36 -20 -66 -34 -68 -32 -1 1 -31 66 -65
143 -34 77 -73 163 -86 192 -17 39 -20 54 -11 60 38 29 305 132 342 133 11 0
37 -5 57 -10z"/>
<path d="M1130 1501 c0 -12 -14 -26 -37 -38 -80 -42 -68 -109 27 -151 65 -29
81 -49 54 -69 -21 -15 -47 -16 -91 -4 -27 8 -33 7 -38 -10 -9 -27 1 -37 40
-45 25 -4 35 -12 37 -28 2 -13 11 -22 26 -24 18 -3 22 1 22 22 0 20 8 29 34
40 38 16 56 42 56 81 0 32 -32 62 -91 85 -35 14 -44 23 -44 41 0 23 3 24 58
22 54 -2 57 -1 57 22 0 20 -7 25 -35 31 -25 4 -35 11 -35 25 0 12 -7 19 -20
19 -13 0 -20 -7 -20 -19z"/>
</g>
</svg>
